HIERARCHY
ROOT Hips
{
	OFFSET 0.000000 100.481300 0.000000
	CHANNELS 6 Xposition Yposition Zposition Xrotation Yrotation Zrotation
	JOINT Spine
	{
		OFFSET -0.279200 12.230698 -2.892100
		CHANNELS 3 Xrotation Yrotation Zrotation
		JOINT Spine1
		{
			OFFSET -0.325700 14.269203 -3.374200
			CHANNELS 3 Xrotation Yrotation Zrotation
			JOINT Spine2
			{
				OFFSET -0.372300 16.307602 -0.352600
				CHANNELS 3 Xrotation Yrotation Zrotation
				JOINT Neck
				{
					OFFSET -0.418800 17.814194 8.416900
					CHANNELS 3 Xrotation Yrotation Zrotation
					JOINT Head
					{
						OFFSET 0.000000 7.031097 3.806800
						CHANNELS 3 Xrotation Yrotation Zrotation
						JOINT HeadTop_End
						{
							OFFSET 0.000000 24.646606 12.978600
							CHANNELS 3 Xrotation Yrotation Zrotation
							End Site
							{
								OFFSET 0.000000 27.854965 0.000000
							}
						}
					}
				}
				JOINT LeftShoulder
				{
					OFFSET 16.952999 14.495407 -7.737500
					CHANNELS 3 Xrotation Yrotation Zrotation
					JOINT LeftArm
					{
						OFFSET 9.308998 -2.777710 0.208600
						CHANNELS 3 Xrotation Yrotation Zrotation
						JOINT LeftForeArm
						{
							OFFSET 29.972298 0.000000 0.000000
							CHANNELS 3 Xrotation Yrotation Zrotation
							JOINT LeftHand
							{
								OFFSET 26.026505 0.000000 0.000000
								CHANNELS 3 Xrotation Yrotation Zrotation
								JOINT LeftHandThumb1
								{
									OFFSET 12.240501 -7.147949 9.207150
									CHANNELS 3 Xrotation Yrotation Zrotation
									JOINT LeftHandThumb2
									{
										OFFSET 4.138618 -2.389435 2.389433
										CHANNELS 3 Xrotation Yrotation Zrotation
										JOINT LeftHandThumb3
										{
											OFFSET 2.726913 -1.574387 1.574386
											CHANNELS 3 Xrotation Yrotation Zrotation
											JOINT LeftHandThumb4
											{
												OFFSET 3.941010 -2.275345 2.275342
												CHANNELS 3 Xrotation Yrotation Zrotation
												End Site
												{
													OFFSET -0.005798 5.087799 0.009903
												}
											}
										}
									}
								}
								JOINT LeftHandIndex1
								{
									OFFSET 24.424698 -1.985611 5.953459
									CHANNELS 3 Xrotation Yrotation Zrotation
									JOINT LeftHandIndex2
									{
										OFFSET 6.426697 0.000000 0.000000
										CHANNELS 3 Xrotation Yrotation Zrotation
										JOINT LeftHandIndex3
										{
											OFFSET 5.337898 0.000000 0.000000
											CHANNELS 3 Xrotation Yrotation Zrotation
											JOINT LeftHandIndex4
											{
												OFFSET 4.409401 0.000000 0.000000
												CHANNELS 3 Xrotation Yrotation Zrotation
												End Site
												{
													OFFSET 0.000000 4.409363 0.014373
												}
											}
										}
									}
								}
								JOINT LeftHandMiddle1
								{
									OFFSET 23.810104 0.000000 0.000000
									CHANNELS 3 Xrotation Yrotation Zrotation
									JOINT LeftHandMiddle2
									{
										OFFSET 7.176498 0.000000 0.000000
										CHANNELS 3 Xrotation Yrotation Zrotation
										JOINT LeftHandMiddle3
										{
											OFFSET 6.774902 0.000000 0.000000
											CHANNELS 3 Xrotation Yrotation Zrotation
											JOINT LeftHandMiddle4
											{
												OFFSET 5.403328 0.000000 0.000000
												CHANNELS 3 Xrotation Yrotation Zrotation
												End Site
												{
													OFFSET -0.027702 5.403244 0.017414
												}
											}
										}
									}
								}
								JOINT LeftHandRing1
								{
									OFFSET 22.908401 -0.839279 -6.020567
									CHANNELS 3 Xrotation Yrotation Zrotation
									JOINT LeftHandRing2
									{
										OFFSET 6.337502 0.000000 0.000000
										CHANNELS 3 Xrotation Yrotation Zrotation
										JOINT LeftHandRing3
										{
											OFFSET 5.779297 0.000000 0.000000
											CHANNELS 3 Xrotation Yrotation Zrotation
											JOINT LeftHandRing4
											{
												OFFSET 4.965698 0.000000 0.000000
												CHANNELS 3 Xrotation Yrotation Zrotation
												End Site
												{
													OFFSET 0.000000 4.965668 0.016186
												}
											}
										}
									}
								}
								JOINT LeftHandPinky1
								{
									OFFSET 20.037003 -1.530319 -10.950146
									CHANNELS 3 Xrotation Yrotation Zrotation
									JOINT LeftHandPinky2
									{
										OFFSET 5.254700 0.000000 0.000000
										CHANNELS 3 Xrotation Yrotation Zrotation
										JOINT LeftHandPinky3
										{
											OFFSET 4.810204 0.000000 0.000000
											CHANNELS 3 Xrotation Yrotation Zrotation
											JOINT LeftHandPinky4
											{
												OFFSET 3.647202 0.000000 0.000000
												CHANNELS 3 Xrotation Yrotation Zrotation
												End Site
												{
													OFFSET 0.000000 3.647186 0.011889
												}
											}
										}
									}
								}
							}
						}
					}
				}
				JOINT RightShoulder
				{
					OFFSET -15.141001 14.495407 -7.737500
					CHANNELS 3 Xrotation Yrotation Zrotation
					JOINT RightArm
					{
						OFFSET -9.308998 -2.777710 0.208500
						CHANNELS 3 Xrotation Yrotation Zrotation
						JOINT RightForeArm
						{
							OFFSET -29.972300 0.000000 0.000000
							CHANNELS 3 Xrotation Yrotation Zrotation
							JOINT RightHand
							{
								OFFSET -26.026505 0.000000 0.000000
								CHANNELS 3 Xrotation Yrotation Zrotation
								JOINT RightHandThumb1
								{
									OFFSET -12.240601 -7.148026 9.207092
									CHANNELS 3 Xrotation Yrotation Zrotation
									JOINT RightHandThumb2
									{
										OFFSET -4.138618 -2.389435 2.389433
										CHANNELS 3 Xrotation Yrotation Zrotation
										JOINT RightHandThumb3
										{
											OFFSET -2.726974 -1.574417 1.574421
											CHANNELS 3 Xrotation Yrotation Zrotation
											JOINT RightHandThumb4
											{
												OFFSET -3.941010 -2.275345 2.275343
												CHANNELS 3 Xrotation Yrotation Zrotation
												End Site
												{
													OFFSET 0.005814 5.087799 0.009927
												}
											}
										}
									}
								}
								JOINT RightHandIndex1
								{
									OFFSET -24.424698 -1.985657 5.953444
									CHANNELS 3 Xrotation Yrotation Zrotation
									JOINT RightHandIndex2
									{
										OFFSET -6.426697 0.000000 0.000000
										CHANNELS 3 Xrotation Yrotation Zrotation
										JOINT RightHandIndex3
										{
											OFFSET -5.337898 0.000000 0.000000
											CHANNELS 3 Xrotation Yrotation Zrotation
											JOINT RightHandIndex4
											{
												OFFSET -4.409401 0.000000 0.000000
												CHANNELS 3 Xrotation Yrotation Zrotation
												End Site
												{
													OFFSET 0.000000 4.409363 0.014408
												}
											}
										}
									}
								}
								JOINT RightHandMiddle1
								{
									OFFSET -23.810097 0.000000 0.000000
									CHANNELS 3 Xrotation Yrotation Zrotation
									JOINT RightHandMiddle2
									{
										OFFSET -7.176498 0.000000 0.000000
										CHANNELS 3 Xrotation Yrotation Zrotation
										JOINT RightHandMiddle3
										{
											OFFSET -6.774902 0.000000 0.000000
											CHANNELS 3 Xrotation Yrotation Zrotation
											JOINT RightHandMiddle4
											{
												OFFSET -5.403328 0.000000 0.000000
												CHANNELS 3 Xrotation Yrotation Zrotation
												End Site
												{
													OFFSET 0.027702 5.403244 0.017457
												}
											}
										}
									}
								}
								JOINT RightHandRing1
								{
									OFFSET -22.908302 -0.839325 -6.020576
									CHANNELS 3 Xrotation Yrotation Zrotation
									JOINT RightHandRing2
									{
										OFFSET -6.337502 0.000000 0.000000
										CHANNELS 3 Xrotation Yrotation Zrotation
										JOINT RightHandRing3
										{
											OFFSET -5.779297 0.000000 0.000000
											CHANNELS 3 Xrotation Yrotation Zrotation
											JOINT RightHandRing4
											{
												OFFSET -4.965698 0.000000 0.000000
												CHANNELS 3 Xrotation Yrotation Zrotation
												End Site
												{
													OFFSET 0.000000 4.965668 0.016226
												}
											}
										}
									}
								}
								JOINT RightHandPinky1
								{
									OFFSET -20.037003 -1.530334 -10.950259
									CHANNELS 3 Xrotation Yrotation Zrotation
									JOINT RightHandPinky2
									{
										OFFSET -5.254700 0.000000 0.000000
										CHANNELS 3 Xrotation Yrotation Zrotation
										JOINT RightHandPinky3
										{
											OFFSET -4.810204 0.000000 0.000000
											CHANNELS 3 Xrotation Yrotation Zrotation
											JOINT RightHandPinky4
											{
												OFFSET -3.647202 0.000000 0.000000
												CHANNELS 3 Xrotation Yrotation Zrotation
												End Site
												{
													OFFSET 0.000000 3.647186 0.011917
												}
											}
										}
									}
								}
							}
						}
					}
				}
			}
		}
	}
	JOINT LeftUpLeg
	{
		OFFSET 15.427100 -6.655098 0.678600
		CHANNELS 3 Xrotation Yrotation Zrotation
		JOINT LeftLeg
		{
			OFFSET 4.081073 -39.591068 13.024000
			CHANNELS 3 Xrotation Yrotation Zrotation
			JOINT LeftFoot
			{
				OFFSET -4.081074 -37.707932 -15.979700
				CHANNELS 3 Xrotation Yrotation Zrotation
				JOINT LeftToeBase
				{
					OFFSET 5.346399 -15.068900 20.645000
					CHANNELS 3 Xrotation Yrotation Zrotation
					JOINT LeftToe_End
					{
						OFFSET 2.754700 0.931300 11.300900
						CHANNELS 3 Xrotation Yrotation Zrotation
						End Site
						{
							OFFSET 0.000000 11.669021 0.000000
						}
					}
				}
			}
		}
	}
	JOINT RightUpLeg
	{
		OFFSET -15.569500 -6.655098 0.678600
		CHANNELS 3 Xrotation Yrotation Zrotation
		JOINT RightLeg
		{
			OFFSET -4.081825 -39.591045 13.023800
			CHANNELS 3 Xrotation Yrotation Zrotation
			JOINT RightFoot
			{
				OFFSET 4.081824 -37.707954 -15.979600
				CHANNELS 3 Xrotation Yrotation Zrotation
				JOINT RightToeBase
				{
					OFFSET -5.346400 -15.068900 20.645000
					CHANNELS 3 Xrotation Yrotation Zrotation
					JOINT RightToe_End
					{
						OFFSET -2.754700 0.931300 11.300900
						CHANNELS 3 Xrotation Yrotation Zrotation
						End Site
						{
							OFFSET 0.000000 11.669021 0.000000
						}
					}
				}
			}
		}
	}
}
MOTION
Frames: 5
Frame Time: 0.033333
12.807199 73.000961 129.860275 -17.523866 -23.357273 7.251325 9.757596 -2.837795 -2.836272 15.656175 -5.310904 -4.626623 16.094608 -4.725422 -3.932085 1.497900 3.698143 2.710211 3.191091 24.735279 -13.996981 -0.000002 -0.000000 -0.000000 2.233126 -7.743510 11.928404 -10.287917 21.684765 -42.201061 -0.000002 -139.874419 -0.000003 -83.855435 -11.819359 61.068660 -8.229387 -14.793993 -1.038784 5.497512 7.266660 -2.619612 -0.575600 1.586257 2.542391 0.000002 -0.000000 -0.000000 1.690417 4.523576 -40.963739 1.690422 4.523575 -40.963742 1.690414 4.523572 -40.963745 0.000001 -0.000002 -0.000002 1.689155 4.522132 -40.947660 1.691696 4.525043 -40.979830 1.690411 4.523565 -40.963756 0.000001 0.000001 0.000001 1.690417 4.523576 -40.963739 1.690423 4.523573 -40.963745 1.690405 4.523567 -40.963745 -0.000000 -0.000002 0.000001 4.356795 7.590933 -40.734818 1.707365 0.455889 -41.353835 1.690415 4.523573 -40.963745 0.000002 0.000000 -0.000002 1.000346 4.921091 2.938407 11.363631 56.742271 8.177301 -0.000043 108.367686 0.000049 -40.010049 19.092580 2.371058 3.051195 -12.976109 -5.960134 6.398167 -11.425315 -4.739914 1.585490 -6.357636 -3.257192 0.000001 -0.000000 0.000001 1.026221 8.593788 -6.719228 6.954345 -6.948222 90.050491 6.862098 -6.947699 89.288085 0.000003 -0.000000 -0.000002 6.012602 -6.885240 82.242431 6.012601 -6.885252 82.242438 0.958082 -3.527208 30.383776 0.000001 -0.000001 -0.000003 6.012597 -6.885244 82.242417 6.012606 -6.885258 82.242424 0.958078 -3.527204 30.383769 -0.000002 0.000000 0.000000 6.012604 -6.885240 82.242431 6.012606 -6.885260 82.242438 0.958074 -3.527200 30.383769 0.000003 -0.000000 0.000001 -34.536773 11.710891 3.067051 56.898505 -7.502688 0.575999 5.042019 -6.331608 -11.612635 -10.868452 -0.004687 0.425737 0.000000 0.000001 -0.000000 -36.623068 3.747046 -24.187281 78.047062 7.388798 -0.136142 -9.500493 17.643678 3.789488 -15.119003 0.175500 -2.579152 -0.000000 0.000000 -0.000000 
14.050056 62.806091 131.696686 -18.568761 -25.507645 7.448337 12.971932 -3.037073 -5.949497 20.428193 -6.020038 -3.846202 20.805274 -5.455225 -2.916984 -2.509317 4.341125 2.474455 -1.762534 27.257912 -14.191286 -0.000002 0.000000 0.000000 1.756691 -5.059149 8.061396 -22.399593 18.148328 -44.453470 0.000002 -135.281268 -0.000001 -81.321612 -9.456839 61.818635 -8.229382 -14.793993 -1.038784 5.497508 7.266660 -2.619613 -0.575598 1.586257 2.542389 0.000003 0.000000 0.000000 1.690419 4.523576 -40.963735 1.690425 4.523571 -40.963745 1.690412 4.523574 -40.963745 0.000000 0.000002 -0.000000 1.689160 4.522132 -40.947660 1.691698 4.525040 -40.979830 1.690412 4.523569 -40.963749 -0.000002 0.000001 -0.000000 1.690419 4.523576 -40.963739 1.690425 4.523572 -40.963745 1.690407 4.523566 -40.963752 -0.000002 0.000000 0.000001 4.356796 7.590933 -40.734821 1.707363 0.455889 -41.353831 1.690411 4.523572 -40.963745 0.000000 -0.000002 -0.000002 1.095195 4.416069 6.351716 13.151049 64.011590 -1.800101 -0.000047 97.251450 0.000098 -45.848676 21.404855 7.225562 3.051196 -12.976110 -5.960131 6.398166 -11.425318 -4.739916 1.585490 -6.357634 -3.257190 -0.000000 -0.000002 -0.000002 1.026221 8.593785 -6.719228 6.954345 -6.948222 90.050498 6.862099 -6.947696 89.288092 0.000001 -0.000001 -0.000005 6.012602 -6.885239 82.242438 6.012601 -6.885252 82.242438 0.958079 -3.527207 30.383769 0.000000 -0.000001 -0.000001 6.012599 -6.885244 82.242431 6.012604 -6.885256 82.242431 0.958076 -3.527203 30.383769 0.000001 -0.000001 -0.000002 6.012603 -6.885240 82.242438 6.012607 -6.885259 82.242438 0.958076 -3.527198 30.383765 -0.000000 -0.000000 0.000002 -43.125234 13.457741 6.569425 70.974114 -9.341745 -0.795896 -3.648847 -5.667763 -8.535437 -6.172191 -0.033404 1.151976 -0.000000 -0.000002 0.000000 -44.768420 9.837306 -21.114948 93.404818 7.852779 -0.217902 -13.186248 9.980594 -1.458968 -17.075697 0.161124 -1.929879 -0.000000 0.000001 0.000000 
15.266865 52.670403 133.549683 -15.561573 -26.629798 8.250992 13.751963 -3.273466 -6.970284 21.344768 -6.781665 -2.228322 21.590776 -6.452180 -1.163391 -3.474294 5.256560 0.778313 -3.287210 29.686820 -15.516831 -0.000000 0.000000 0.000000 1.433348 -3.231930 3.383045 -29.475811 16.001883 -45.026567 0.000002 -128.149184 0.000001 -87.276840 -5.362130 59.557679 -8.229394 -14.793995 -1.038783 5.497505 7.266662 -2.619612 -0.575595 1.586255 2.542391 -0.000000 -0.000001 -0.000001 1.690410 4.523579 -40.963739 1.690421 4.523570 -40.963745 1.690410 4.523573 -40.963749 0.000002 -0.000001 -0.000002 1.689156 4.522132 -40.947660 1.691696 4.525041 -40.979830 1.690406 4.523566 -40.963752 -0.000000 0.000001 0.000001 1.690410 4.523579 -40.963735 1.690426 4.523573 -40.963742 1.690405 4.523565 -40.963749 -0.000001 -0.000000 0.000000 4.356795 7.590936 -40.734821 1.707369 0.455886 -41.353828 1.690417 4.523571 -40.963742 0.000001 0.000002 0.000001 1.199010 5.934025 4.668052 4.218964 68.941109 6.885343 -0.009920 90.552312 0.010055 -48.733229 16.877980 10.812302 3.051196 -12.976110 -5.960130 6.398167 -11.425318 -4.739916 1.585488 -6.357636 -3.257191 -0.000001 0.000000 0.000001 1.026223 8.593784 -6.719232 6.954347 -6.948222 90.050491 6.862100 -6.947698 89.288085 0.000001 -0.000002 -0.000005 6.012603 -6.885240 82.242431 6.012601 -6.885252 82.242438 0.958080 -3.527209 30.383772 0.000000 0.000001 -0.000002 6.012598 -6.885244 82.242431 6.012606 -6.885258 82.242431 0.958076 -3.527203 30.383765 -0.000000 0.000000 0.000002 6.012603 -6.885240 82.242431 6.012607 -6.885259 82.242438 0.958075 -3.527201 30.383769 -0.000000 -0.000000 0.000002 -57.416353 13.537854 10.194389 86.223912 -9.448434 -0.850655 -10.196375 -4.074739 -4.082968 -2.747335 0.000005 -0.000004 -0.000000 -0.000002 0.000000 -56.434243 15.313286 -18.129009 107.012740 9.535167 0.400249 -18.702965 2.618233 -1.307950 -16.716456 -0.002413 0.026242 -0.000000 -0.000002 -0.000000 
15.543724 44.093948 135.561462 -10.482276 -26.796323 9.449663 12.433485 -3.415149 -5.796500 19.131109 -6.771306 -0.655446 19.207310 -6.707843 0.242140 -2.632760 5.865241 -1.039689 -3.399600 31.113902 -17.493040 0.000002 0.000000 0.000000 1.173452 -2.181527 -0.569146 -27.616038 11.397742 -44.629276 0.000003 -118.669059 0.000002 -90.796170 -5.663073 54.978679 -8.229390 -14.793995 -1.038785 5.497505 7.266660 -2.619615 -0.575601 1.586258 2.542389 -0.000003 -0.000001 -0.000001 1.690412 4.523579 -40.963742 1.690417 4.523575 -40.963745 1.690412 4.523575 -40.963745 -0.000001 -0.000002 -0.000004 1.689155 4.522134 -40.947664 1.691696 4.525044 -40.979827 1.690406 4.523567 -40.963756 -0.000002 0.000001 -0.000003 1.690412 4.523579 -40.963739 1.690421 4.523577 -40.963745 1.690405 4.523566 -40.963749 0.000001 0.000002 0.000002 4.356797 7.590937 -40.734821 1.707370 0.455890 -41.353831 1.690415 4.523573 -40.963745 -0.000004 -0.000002 0.000001 1.334692 7.872121 1.007056 -2.207627 68.509400 17.166871 0.041655 89.388147 -0.041794 -47.539052 15.889458 10.149000 3.051199 -12.976107 -5.960137 6.398166 -11.425318 -4.739912 1.585491 -6.357636 -3.257193 0.000001 -0.000001 -0.000003 1.026225 8.593787 -6.719230 6.954346 -6.948221 90.050484 6.862101 -6.947697 89.288092 0.000001 0.000002 -0.000000 6.012605 -6.885239 82.242431 6.012602 -6.885253 82.242438 0.958081 -3.527210 30.383772 -0.000001 -0.000002 -0.000003 6.012601 -6.885243 82.242424 6.012605 -6.885258 82.242431 0.958077 -3.527204 30.383769 0.000000 -0.000000 -0.000000 6.012605 -6.885239 82.242431 6.012609 -6.885259 82.242438 0.958075 -3.527199 30.383772 -0.000000 0.000000 0.000002 -72.803444 11.307806 12.695226 99.047278 -9.380016 -0.776247 -13.936522 -1.601910 -0.990274 -2.181628 -0.000007 -0.000002 -0.000000 -0.000002 -0.000000 -65.296260 21.227902 -17.454424 117.913681 11.018007 1.698090 -27.768575 0.722390 0.698703 -11.692912 -0.015935 1.284102 0.000000 -0.000001 -0.000000 
15.241953 38.427231 137.068970 -6.247485 -26.241961 9.953496 11.230045 -3.317728 -4.206025 17.291027 -6.087289 0.213942 17.274858 -6.156392 0.829365 -2.540612 5.982641 -1.610991 -5.248924 31.589656 -18.022561 -0.000000 0.000000 -0.000000 1.031276 -1.893675 -1.372507 -25.017719 4.755285 -45.120489 0.000045 -110.437534 0.000036 -87.844115 -9.905896 42.694870 -8.229391 -14.793995 -1.038784 5.497501 7.266662 -2.619612 -0.575602 1.586259 2.542390 -0.000002 -0.000002 -0.000003 1.690412 4.523578 -40.963732 1.690422 4.523572 -40.963742 1.690411 4.523572 -40.963745 -0.000004 0.000003 -0.000002 1.689153 4.522135 -40.947660 1.691700 4.525045 -40.979830 1.690409 4.523566 -40.963749 -0.000001 0.000002 0.000000 1.690414 4.523578 -40.963735 1.690418 4.523572 -40.963745 1.690415 4.523563 -40.963749 0.000001 0.000000 -0.000001 4.356790 7.590933 -40.734821 1.707366 0.455889 -41.353835 1.690414 4.523572 -40.963749 -0.000003 -0.000001 0.000002 1.435949 8.744348 -1.857267 -2.093557 65.950087 17.490098 0.046982 90.735102 -0.047002 -47.008265 20.499010 7.123692 3.051196 -12.976110 -5.960132 6.398166 -11.425318 -4.739913 1.585489 -6.357634 -3.257196 0.000002 -0.000001 -0.000002 1.026220 8.593785 -6.719224 6.954347 -6.948222 90.050491 6.862102 -6.947696 89.288092 0.000000 0.000001 -0.000002 6.012602 -6.885240 82.242438 6.012604 -6.885253 82.242438 0.958081 -3.527208 30.383769 -0.000000 0.000003 0.000001 6.012598 -6.885244 82.242424 6.012606 -6.885259 82.242424 0.958077 -3.527204 30.383765 0.000001 0.000000 -0.000000 6.012602 -6.885240 82.242438 6.012609 -6.885261 82.242438 0.958076 -3.527200 30.383769 0.000001 0.000001 -0.000000 -84.519117 7.188898 13.654230 107.486462 -10.520446 -0.998004 -16.066149 0.745260 -1.184596 -0.445880 -0.000011 0.000002 0.000000 -0.000000 -0.000000 -70.377921 26.187881 -17.498996 124.388946 14.631264 2.863970 -33.477701 -0.724563 2.887014 -11.146157 -0.005193 0.815341 0.000000 -0.000002 0.000000 
